<mxfile host="Electron" modified="2024-03-19T19:32:50.563Z" agent="Mozilla/5.0 (Windows NT 10.0; Win64; x64) AppleWebKit/537.36 (KHTML, like Gecko) draw.io/21.6.8 Chrome/114.0.5735.289 Electron/25.5.0 Safari/537.36" etag="hCkRAYHiguhIw2h1Q4Ub" version="21.6.8" type="device">
  <diagram id="C5RBs43oDa-KdzZeNtuy" name="Page-1">
    <mxGraphModel dx="546" dy="847" grid="1" gridSize="10" guides="1" tooltips="1" connect="1" arrows="1" fold="1" page="1" pageScale="1" pageWidth="827" pageHeight="1169" background="none" math="0" shadow="0">
      <root>
        <mxCell id="WIyWlLk6GJQsqaUBKTNV-0" />
        <mxCell id="WIyWlLk6GJQsqaUBKTNV-1" parent="WIyWlLk6GJQsqaUBKTNV-0" />
        <mxCell id="Um86P_UFlqREeCSDN8Ke-40" style="edgeStyle=orthogonalEdgeStyle;rounded=0;orthogonalLoop=1;jettySize=auto;html=1;entryX=0.75;entryY=0;entryDx=0;entryDy=0;" edge="1" parent="WIyWlLk6GJQsqaUBKTNV-1" source="Um86P_UFlqREeCSDN8Ke-22" target="Um86P_UFlqREeCSDN8Ke-31">
          <mxGeometry relative="1" as="geometry" />
        </mxCell>
        <mxCell id="Um86P_UFlqREeCSDN8Ke-22" value="" style="rounded=0;whiteSpace=wrap;html=1;" vertex="1" parent="WIyWlLk6GJQsqaUBKTNV-1">
          <mxGeometry x="344.5" y="290" width="155.5" height="31.02" as="geometry" />
        </mxCell>
        <mxCell id="Um86P_UFlqREeCSDN8Ke-29" style="edgeStyle=orthogonalEdgeStyle;rounded=0;orthogonalLoop=1;jettySize=auto;html=1;exitX=0.25;exitY=1;exitDx=0;exitDy=0;entryX=0.75;entryY=0;entryDx=0;entryDy=0;" edge="1" parent="WIyWlLk6GJQsqaUBKTNV-1" source="Um86P_UFlqREeCSDN8Ke-1" target="Um86P_UFlqREeCSDN8Ke-4">
          <mxGeometry relative="1" as="geometry">
            <Array as="points">
              <mxPoint x="265" y="130" />
              <mxPoint x="243" y="130" />
            </Array>
          </mxGeometry>
        </mxCell>
        <mxCell id="Um86P_UFlqREeCSDN8Ke-1" value="" style="shape=parallelogram;perimeter=parallelogramPerimeter;whiteSpace=wrap;html=1;fixedSize=1;" vertex="1" parent="WIyWlLk6GJQsqaUBKTNV-1">
          <mxGeometry x="240" y="80" width="100" height="30" as="geometry" />
        </mxCell>
        <mxCell id="Um86P_UFlqREeCSDN8Ke-38" style="edgeStyle=orthogonalEdgeStyle;rounded=0;orthogonalLoop=1;jettySize=auto;html=1;entryX=0.25;entryY=0;entryDx=0;entryDy=0;" edge="1" parent="WIyWlLk6GJQsqaUBKTNV-1" source="Um86P_UFlqREeCSDN8Ke-4" target="Um86P_UFlqREeCSDN8Ke-31">
          <mxGeometry relative="1" as="geometry" />
        </mxCell>
        <mxCell id="Um86P_UFlqREeCSDN8Ke-4" value="" style="rounded=0;whiteSpace=wrap;html=1;" vertex="1" parent="WIyWlLk6GJQsqaUBKTNV-1">
          <mxGeometry x="160" y="160" width="110" height="20" as="geometry" />
        </mxCell>
        <mxCell id="Um86P_UFlqREeCSDN8Ke-27" style="edgeStyle=orthogonalEdgeStyle;rounded=0;orthogonalLoop=1;jettySize=auto;html=1;entryX=0.5;entryY=0;entryDx=0;entryDy=0;" edge="1" parent="WIyWlLk6GJQsqaUBKTNV-1" source="Um86P_UFlqREeCSDN8Ke-10" target="Um86P_UFlqREeCSDN8Ke-11">
          <mxGeometry relative="1" as="geometry" />
        </mxCell>
        <mxCell id="Um86P_UFlqREeCSDN8Ke-10" value="" style="rounded=0;whiteSpace=wrap;html=1;" vertex="1" parent="WIyWlLk6GJQsqaUBKTNV-1">
          <mxGeometry x="290" y="155" width="150" height="30" as="geometry" />
        </mxCell>
        <mxCell id="Um86P_UFlqREeCSDN8Ke-35" style="edgeStyle=orthogonalEdgeStyle;rounded=0;orthogonalLoop=1;jettySize=auto;html=1;exitX=0.75;exitY=1;exitDx=0;exitDy=0;entryX=0.342;entryY=0.005;entryDx=0;entryDy=0;entryPerimeter=0;" edge="1" parent="WIyWlLk6GJQsqaUBKTNV-1" source="Um86P_UFlqREeCSDN8Ke-11" target="Um86P_UFlqREeCSDN8Ke-22">
          <mxGeometry relative="1" as="geometry">
            <Array as="points">
              <mxPoint x="479" y="270" />
              <mxPoint x="398" y="270" />
            </Array>
          </mxGeometry>
        </mxCell>
        <mxCell id="Um86P_UFlqREeCSDN8Ke-36" style="edgeStyle=orthogonalEdgeStyle;rounded=0;orthogonalLoop=1;jettySize=auto;html=1;entryX=0.5;entryY=0;entryDx=0;entryDy=0;" edge="1" parent="WIyWlLk6GJQsqaUBKTNV-1" target="Um86P_UFlqREeCSDN8Ke-31">
          <mxGeometry relative="1" as="geometry">
            <mxPoint x="356" y="260" as="sourcePoint" />
            <Array as="points">
              <mxPoint x="356" y="270" />
              <mxPoint x="295" y="270" />
            </Array>
          </mxGeometry>
        </mxCell>
        <mxCell id="Um86P_UFlqREeCSDN8Ke-11" value="" style="rounded=0;whiteSpace=wrap;html=1;" vertex="1" parent="WIyWlLk6GJQsqaUBKTNV-1">
          <mxGeometry x="294.5" y="220" width="245.5" height="40" as="geometry" />
        </mxCell>
        <mxCell id="Um86P_UFlqREeCSDN8Ke-14" value="" style="shape=image;verticalLabelPosition=bottom;labelBackgroundColor=default;verticalAlign=top;aspect=fixed;imageAspect=0;image=data:image/png,iVBORw0KGgoAAAANSUhEUgAAAMsAAAAsCAYAAADLukwJAAAAAXNSR0IArs4c6QAAAARnQU1BAACxjwv8YQUAAAAJcEhZcwAADsMAAA7DAcdvqGQAAAbnSURBVHhe7ZxPSxZfFMevv1eguS0FM1AsDLWSiKCFFblMyHoHuRftzyZEyBYt1cB2gbpyY4GbBI0wKlNQcqNEtMsUegHZfGfOfX7nOc/M3Gs+k87T+cDFc2fuM888595z7rnnzli1F2AURXHyH/1VFMWBGouieKLGoiieqLEoiidqLIriiRqLoniixqIonqQay6tXr8z169dNVVVVWCCvrq7S2WKmpqbMuXPnCm0h4/NKtjx58qRI7w8ePDA/fvygs/+DY2jb2NhYaNvb25vYn5UEfvuzZ8+KxjIK9AZ9bW1tFdqhDY7bY0VgU1Kyvb29d+vWLWxWlpSOjg5qFbG5uRkei2uL8vLlS2qplJOVlZVEvd+/f59aRSwuLu7V1NTEtsVxXKtSGR8fT/ztvEBnXJ9xlByFoeBD+AJ8EcCF+IVhIABKdt3IyZMn9379+hW2V8qD1Tt0C0NAn127dq2gc+7QJicni/ojrlRqH/X19RX9zrt374b6siQ5HOgyjhJjsR/mF4XMLwZjQQdByajjJqwBybYonz59Cs/9bfgAyrpwfWUJ9AxDQUEfWEZGRgr3gn4Bti+s47PtIdu2tszOzobnKgWMSf774DTigD55OxToMo4SY8FF7Yxi4QYAxQM7EONuQoZwCwsLdObvUonGAjAQZOjEjQX650YVF2bJwfT48WM6k3+4LlCSDMUiZ5ekpUN8cCbgnggD0N6MNCqLvFk1luzhDgr6x29PMhTAHSAK2lcCcqaAXlzIccJnbI6XsXAvhA7AXxxLQq5xvn//TmeUrLAhMYrto7TkSqUai4xq7PIgDa47vt6TeO2zvH//niRjdnd3TXBxMzQ0REdK+fjxI0kmbFtbW0s1JQuQ8gwGBdWiPgoclrlx4wYdOVogXW3TuEhll2uLAene6elpqhkTOHTT0NBAtWS47pA2ToSMJhU048UVA1rPhgJL12xYtmAG4f0D/SeFEpbDnFmk98f9lgMZ0fgklqQe0sa2c2Z58+YNSRGYKbCZlQS8Bjyb5cqVK6EHUbJjbW2NpIjBwcF9z+Y+HrhccO8PMF7kOPsT+HUDAzStra1US2Z9fZ2kiObmZpJKcRrL27dvSYro7+8nKZ6lpSWSIjo7O0lSsuL169ckRfT09JCUjBwk9fX1JGVPMLOQFIGBfenSJar9GXDSPJy6evUqSenMz8+T5DYwp7EsLy+TFNHV1UVSPPv5cqU88DVlsED1miW+fv1KUsTFixdJyp579+6ZIOwLZUQqL168COWD8PnzZ5Ii2tranBEN1np8Njp//jxJCVA4lgjPFEB2gfjTtvdJ22WJTAlmWQ4rdYzUcDAoCveBtLEPvF/RZ3lfV8rtCp/+wPqEf8alu9SZBdkFPrXBa6Uh1yuwbiVbpEc9ffo0ScnIfk1bg+aFL1++kOTPw4cPSYpwza6pxrKxsUFShGvwy/XK35za/1UWFhYQHVDNmKamJpKSef78OUkRd+7cyX0SJvYp4RTwBDZ3GCBtcR8STTDxyFSca2qTKUEle+SjGi6QUuahcqVsRsqQO22sInTlbVHSNiMtqTML31wErozFhw8fSDKFBZySHVigcp37gFmFh8oyFMkr7e3tJEV8+/aNpGKgs5s3b4ZLCr6sSN2MJFKNZW5ujiT3egXwaa26upqkCLtri5tVyoNcr7hAHwwMDFDNhLv8B03ZHhXq6upIipDhKcDYwxjc2dkxExMTReP18uXLJCWTaCxQLMfH8jhICVqsNcP43r17R0eVgyL3wIDsNwuOY4PYgpl/eHiYavlH7ueNjY2Fb0cCjD+8yXvq1KlwJh4dHQ2P8xnWuV4BUTRWinznwfWIC+DtkZpEfIz4MDC0ME7WtybLS1xqHLE31zP0L9OqWFu6HofJI3H6kMWOYz6+MTZ9SDQW+b5D0qPeHJkQsAWG4/N5ZX/whTqMhNfjCs777sPkEYyxJB3gOHciPBkFI/Mh0VigfP5FvnCDwTXQOZXoxQ4bDAyrZxR4zCAGD/UtPSzq8KT/Qj9AB3D01mjgqOPGIDcqXwei/0U/pyAGv337NtWMCYxHHy3yBOu3s2fPUs2YxcVFr0RHajZMObog28NRQ/FHbp77ZgTVWHIKf3gyCLNIUnyYmZkhyW9LxKLGkkOQCuWbkXJDTkmH7x/6PsoP1FhyiNyMPHHiBEmKC/mS2ZkzZ0hyo8aSQ+RmZEtLC0mKC6m748ePk+RGjSWHyDcjf/78SZLiQupuP2jqOIccO3as6FENLFIfPXpkLly4oP9Jx4F8FWE/utOZJWdgj4AbCsBiv7u72zx9+pSOKHHE/VMMqzv5jk8cOrMoiic6syiKJ2osiuKJGouieKLGoiheGPMbkvkOgoX6EjsAAAAASUVORK5CYII=;" vertex="1" parent="WIyWlLk6GJQsqaUBKTNV-1">
          <mxGeometry x="185.01" y="163.5" width="59.98" height="13" as="geometry" />
        </mxCell>
        <mxCell id="Um86P_UFlqREeCSDN8Ke-18" value="" style="shape=image;verticalLabelPosition=bottom;labelBackgroundColor=default;verticalAlign=top;aspect=fixed;imageAspect=0;image=data:image/png,iVBORw0KGgoAAAANSUhEUgAAAd8AAAA8CAYAAAAnp7DAAAAAAXNSR0IArs4c6QAAAARnQU1BAACxjwv8YQUAAAAJcEhZcwAADsMAAA7DAcdvqGQAAA+MSURBVHhe7Z3LqxzFF8f7/v6CeN2JCzE3YFBRNFHxsVDQiGYjConiQgho4tJX5N6lBpOACC58gIIb0ajgxkdUUIkPfEdRiQsjutBNoiLuzW++3aduzpzpmanqrurXfD9Q957pnn5MnVPn1Kurl06NyAghhBDSGP+T/4QQQghpCAZfQgghpGEYfAkhhJCGYfAlhBBCGobBlxBCCGkYBl9CCCGkYRh8CSGEkIZh8CWEEEIaZpDB988//8yeffbZbOvWrfn/ptm5c2ee3nrrLdlCUtC2nkk4i142aLP95Pbbb49vt1jhaiicPHny1IEDB06dccYZWLUrT3v27JG9zYB72Lhx4/r1Ib/00kuyl8SgC3om4Sxy2aDN9hfobmVlJbrdDib4fvTRR2MFe9u2bfm2toBy7P1AiaQeXdMzCWfRygZtdhjEtttGgq+7WaRnnnlGtsYDmeLOj5rlm2++KXvaZ3V1dezevv32W9lDQumynkk4i1A2aLPDI5bdJg++qOG5G0WKXeOzxt3FAtyHe+w6zMPugYo0dFGn+9Tq9ejRo7Kn/9Bmu8fx48fzFit0ArkqMXSbPPhinMPdJFJMUIusmwFNYZXFLmh/+qTnRQD5v2XLlnWdoIzXYYhlgzbbPWLHImu3J06ckD1+JA++rpaBBDkWqLUsLy+vn7sP3TloIaTIiyEDPcOw+6TnoYKgqLvcXKobfMGQygZttlvYMXeXYlDHbpMHX22EMQqpQwf1HTt2yNZuA+el8wM1JzKbPup5iMBWte3qFKNcD6ls0Ga7ASpByH+nC5tiUMdukwZfdLXoHxurBmjHkev03TeN7vqA0obQxZaKPut5KCDPdTApS7Eq1UMoG7TZbuDmI2hd2BSLqnabdJGNY8eOiVRw+eWXi1SPRx99VKQsG9VssnPPPVc+dZ9du3ZlIwXl8t9//5299tpruUwm6bOe+w4Wgzh48GC2cePG7J133sn/j2r12Si4ZFu2bJFvxQVlY3l5OZf7WjZos+3y8ccf5wuY7N69O7ehPXv25DY7CsbyjfhU9ukShJOg+8MxQSMGqVrTTaLzBWMRZJIh6LnPOBtFTd62bHVNHylWyxfce++96+ftW9mgzbYLehlc3qO3xk5y07pBikkVn5605fvll1+KlOW1kRi88sorImV5beOmm26ST/1h+/btImXZyGDy2hoZZwh67jMPPPBANnJg2VdffZU99NBDsjU9N998s0j9Kxu02XZBL8Pq6mreyj18+HB20UUXyZ70wKcvLS3lsq/dRgm+6KLCmpejWmt244035jeBhILrePrpp/MuJezHmqa//PKL7Anj0KFDImXZDTfcIFIYuFd9n5C/++472TvOyy+/nFcc3Hch113f0xbKt99+WyTiSKXnaXaXQs99Bo4MDqzpbtM+l40YNjsN2O3a2tqYjTqbhj+FDwbwYysrK/k6xIvIvn37snvuuUc+NUclu5UWcCUwsIwuJ3RN4VShCU31kEkVtltn//79sscPXGva7DfbLY4uDP0so011u5T0JBZ2PY9j9RzarRlTz5yRPknKbmfQx7JR12anAVsue7zLJjc84Hwx8pCMY/MsNqOK0Pq5fey28h0g+NigC4cHZwWHZguoO8Y6RZzD9s1PAzPY9LFHjhyRPfOBEcPJ4no4D7BGjfsGuB/722yq6xTstUMqIUPH6hkzSH3x0bPLax89Izm7IAWpg28fy0Ydm52Gs2V3Ttgq8lr7yzI/jBRbJ0PA5lFs1tbWxs4/z24r3YE1NBiINTYdZG0tDAFaHw/j8SlgelAbKWRFEWfE+j4h6/PByeI+EFjxGddzjtd+F8m30lBGisKq0edOnWJj9RzifEP07JwWnL3Ws3Vm2E9Okzr4pi4bKahjs2XgeBt4p/kb60+R+pBnTWPzKDahdht8B/YC07qOtQMrK5y2dovzzEN3RyH9999/smc+MFDcu0Y7ZdwvcNco6260rfY6Bq6vjRTbgelzp06xsXoOwVfPzrGV6dk6M3bhjZM6+KYuGymoY7Nl6PPBZmeteQ3/q6+NVDf4DxGbR7EJtdugCVeYgDIKkvIpy2dDPvXUU9mZZ54pWwowOQDPOzkuuOACkU5z3333rT8bBTAhy00amMbPP/8sUpY/dxgCJiDYgfgff/xRpCy77LLL8uca8UzjyHmXTli45JJLRCIpaULPmAw4CrKlerbbYBOEzKKOzVow+U/b3GOPPZZdfPHF8mkS639HFcuJbaR7eAdfBMY777wT1YX8MwLniy++mMuWL774QqSCssU1YBzWyX3++ecilXP8+HGRsnxGX130DGfc8969e/PKxbTZcv/8849IBZs3bxYpnLPOOkukgvfff1+kOEBPTaXYNKHn1dXV0sBL2id12UhBTJvFUyMOBPJ5s3ftDP7YM62JH6F26x18n3/++bHWbFmL1/H999+LVBjPtO+dc845IhX88MMPIjWDfg4Zvw33+sgjj8iWSb7++muRZv8uH7jyTXNYPaNlgEcSSDdJWTbQ64FHHvGYDoLcvN62pkGrV/tZvWLWNP744w+RCi688EKRSJOE2q138N2/f79IReCZ1Wp49913RZpdC7vyyitFagf9HDKAoc8KqLpFDwdOug+cq9XzE088IVJz6GczUydSDnpA0OvhghuGurq2hOXjjz8uUtG76NM78+mnn4pUgKGVGKCiUmZfKRKutWh4BV+M9era2I4dO0QqRzu7JlcZCcGuQDKvQoGCq/Pg2muvFYl0Gbu+OOYpXH311fLJD9gG6T9lY/evv/66SO2D7mPtO327j7/55huRioDNXrV+4BV8P/nkE5EKrrrqKpEmsUHtiiuuEGkSW2NrEnvtBx98UKRyPvvsM5EKZv0u0h2snu+66y6RpqPHiEGMcWfSPqh4WW655RaR2ue9994TqcC3gu/b00i6hVfw1WOd4LzzzhNpEuvsZrV87QSmslnRqdC1RXD99deLVM4HH3wgUlG7rNuitw6epCFUz+D3338XqeC6664TqTplE9VSpb6TqmygzB44cGD9KQtMrrzttttyuQvY333++eeLNB3bKxnziQys6V1mXylSk+uHpyLUbr3HfDWzujW0syuraWr0WqhgVlAHrtAAO6M6FN29g27FeV01sWuX//77r0gFMRy8pmxcJVWKTUw9a73BHn0myb3xxhsiFcyzYxKXlGUDTv6vv/7KHf6sSaOhxLBZO2vZZ3jE2mrb82gWmVC7rRR8Z6Gd3ayLo5agp+djAtO8AKgnEujaXigwcnvtWeBeU9UuySQx9ayPv/TSS0WajbZhVMy6Om+BdIcYNqufFfYB9o1JY5rQ+QykPSoF32nNa+vsZnUj400cmvvvv1+k6djgbGuKvvz0008iFcwLpna8N0bt0nbPs8Z6mlh6ti0Qn2ENdOPpitndd98tEmmKPpaNGDar7c4H/Tww4BMY7RJqt17B17YY7AxSh3V2ZYtrAEzK0jW2eTONHbYFYp9v88VOIJuXSR9++KFIBTFql7/++qtIBfYB7brYMZWUKTax9KyfNwdnn322SNN58sknRSq6Enft2iWfSFOkLhspiGWzvqDxYmdvc7JVu/z2228iFcyzW6/ga2c3v/DCCyKN47O4Bp67tDNOp53PYmcY25qGL3YC2bxgqseHY43/6YUffMacF4lYetbdxz6gUqgd2sMPPxxtTJD408eyEcNmbct1WusZPY+7d+8eW+oXNDlhlUwSardewRcvCsbJHHBQZS8anzcpCYEXL3/W3StYX9e3JYnapb4PPQM5BO1gfbpq9P1u2LBBpAIUBPymkydPypb52IUfWGMdx+q56vKCOo/nYSuFsIshzMDsG30tGzFsVh8PyiZuwd/gESTY5x133CFbC2ItrkHCqWK33mO+tnWKdZ7t2K++uO2GQati06ZNY9+ZtrD9LPSPQhDFjw7B3vPWrVtF8kMXEFz71ltvze9j3rrUGvvd7du3i0QcdfVsnzcH+gULGpxbVwrR3Xz48OFcJpPYx7deffVVkerT57JR12btc70Y03V2jFYwVoFyL1h47rnnxuwZNsves+lYvw/KGpBVqWS3pwLAq9aWlpby1yW5hFcD4j2T9nVK2IaEY7aZ122NDCV/CXQVcE59Lpw/BPtKRJ/j9W8eBd/8dV24j1Hts9JvwesT9fnIJHX1bF97hwRd4TzudWujYJt/xnb3HegU1ybl2PLjEvI7xmvsRgFn/Zx9Kxt1bRb5p22xLGG/s0/9ilPIIa9YXSRQzlGudT4iYRviVgyq+PSg4AugeBtMfRMMB8G6biHV14ccgs4kJB9Hu7a2NnaMS8jkUEeN367P0Yd3lbZFHT1rxwQ9IbnP0xJsI0YAGQpwTMhH5L3WxawEh+a+b9+rPA/kva7o9rFs6HyCHAoCtjveJlsx1IGafuQ0iDHOBn3KPfLRfR/2jmAdQlWfHhx8HTAC9yP1hW3Cfjg13eKoi21lh9RedA0Ime4Lfqs7DueoWtPHcfr6dPbTqaNn7ZhcUIUNwh71PugSug0tcIuAttUqCXkdwhDKRh2bdeAYXXmEjdpWNPxv3esMFZ0vVVJoXla128rB16IdGpxZanTQDy3kbQGl6HwKbRksIlX0jEDqjmE+94MhlY0mfJPt/iftUMduo2jNOruq47kh4JrLy8vr1wwdX2kDXZvtS4WhbaBnbdw+esZ33PeR2CroPkMqG1VsNhT6km5QRw9Rgq91djC+JtDXhbGHjr82ib3XPnaptUWonvUQARLpNkMsG6l9kzs3UhM9jWQSq+MTJ07IHj+ieCbt7HxnesUitZHHoA/32HVC8lCP60Mm3cXq9ejRo7Kn/6Qq9+jJcedFaqKnkYwTQ7dRgq92dmiGN43NiC4Zo66YxCyAi4ivnt13kNqwR+LHIpSNFL7JToRrqqeRFMSy2yjBVxtCWxMlUBtERrj7QP97m2N9KHR6mjvuh13N9ZmnZ9sqgKMi3WLRykZs34Tj3bmQSDPEttvamrPOro5R1QUZAWerDb2N8RCtIMhQGonHLD3bVkEb+ifTWdSyEdM3ueNdIulZWVlZz+9Ydltbc9bZdQEYOlrgZc/HNQG6OpE4FpOWMj3r2YdIcHbYx665brDoZaOub7KNHSTkZ5uNnkVg586d0e12CX9GCqwM1mY+dOhQLo+a4VwTl7TK8vJy6cvMR84uX6h+aWlJthDSP7C+8969e+XTOEeOHMmuueYa+US6Tu3gSwghhJAwvN9qRAghhJA4MPgSQgghDcPgSwghhDQMgy8hhBDSMAy+hBBCSMMw+BJCCCENw+BLCCGENEqW/R+qIGVFpBQQ1QAAAABJRU5ErkJggg==;" vertex="1" parent="WIyWlLk6GJQsqaUBKTNV-1">
          <mxGeometry x="295.5" y="161.29999999999998" width="139" height="17.41" as="geometry" />
        </mxCell>
        <mxCell id="Um86P_UFlqREeCSDN8Ke-21" value="" style="shape=image;verticalLabelPosition=bottom;labelBackgroundColor=default;verticalAlign=top;aspect=fixed;imageAspect=0;image=data:image/png,iVBORw0KGgoAAAANSUhEUgAAASAAAAAsCAYAAADFNmVPAAAAAXNSR0IArs4c6QAAAARnQU1BAACxjwv8YQUAAAAJcEhZcwAADsMAAA7DAcdvqGQAAAuTSURBVHhe7Z1JjA5PGMZr/ndB3EUsCZEgzCC2hIQRLg4EcSSRcXCzBEfbOIotwtUSDi7EkpCMJfYlSCTCgasluPPvp6ae8eqp7q7qr3u+75t5f0mn+uvqrq6ueuuptfvr+JNgFEVRmsB/zlUURRlyVIAURWkaKkBKIRcuXDBdXV3m2rVr7oii9AO72LZtm/n48aM7EocKkJLJq1evrIFt3LjRTJo0yUydOtX5KEo/69atsxUU7OPIkSPuaDg6CK14gfgsXbrUfP/+3Zw/f95s2LDB+SjKv3z9+tWsXLnSPH361PT09JgTJ044n2K0BaQMQsVHiWHcuHHm+vXrprOz05w8edLs3bvX+RSjAqQMYsuWLVZ8ent7VXxajHv37tk8qTpfUOlMnjzZdqPQookFInTx4kUzduxYc/DgwfDxQnTBFIUkooMu+Z+kT++OKK3Aly9f/nR3d9u8gXv16lXnUw0fPnyweZ8IiN2Slq/ziSPWfioXINxcboiQ0h7AyGF8yLeyBtiutLLdvnz5ckAYzp07547WgxS6np4edzScWBuqpQW0fv36gYy8e/euO6rUAWutKtIZBoM8Q3gwpJFGXXaLtCwbLlomLNAQoqGCabFnzx53JBxcg2vRCvr9+7c76qcWAWIzDJtSD2iCI4OZzlUUmK6uLhtWmZpvOFCX3SJvyobb2dlprzt16pQ7MjRANGlfsd09CCWf98WLF+6on1oHoTEqrlQLBgsx5bl69WqT1I7uaONgIRmmUcGSJUusO1Kp2m4fPHhg3dhwsb4GeZIIgdm6das7OjRgUHn//v12f/v27dYNZebMmXYwGly6dMm6WdQiQLdv37buihUrrDtcQOHHLESjW5lZBggEVpzOmjXLTJw40SS1kkmayc63cW7duuX2jJk7d67bG1nUZbdlw923b591KQRDDWbaIH6o6CCGMfBZMTOWi2sJVQqCxVb1SH2z4eBco1uZ7hIHB+W1ssvQaBeMfX6MN4xUmJZV222ZcHEur2vmeBzHc9AVjEHaJsaxsqh8JTRaCailAZQTtfVwAQusnj175n6VJ8kc20xtFKzZ2LVrl91PBMgsWrTI7pcBa0CQX4nI2UVlI4267LZsuGjtYlFfs/MDLfbFixfb/Zj4y+tybdPKUAkwYyJnDVBz4jePYQCr2TCOnEXAhlZEX1+fO6O9qbIFxHBiZj1QS3OgMn0d0p4DqDgnPSWL37zW55+FL0/xO/T5eT2vrdpuk0Jq0yKrtYzjyLeiVk1WumaBgV+mN+4hw4cfnw/PG5PHCIdxD80jIAei8bxZRAsQIsSHgcupQSQ8EwBbM2dSGBcktsxsxAlxw/EiA2gHqhKgUGORwBh5DTfaAtM5vSFfQvx9IGzal8xTPDfFKK+A1G23CB8FG2FQUBE274lw8ZvnIM5Z8UVYjE/I7BeehWmQvs6XT9I/BIYdI1yA98q7LlqAmFm+jJL91qGeNiTMDGw0MgJjZfwabTG0AlUJkEyXEAGCUSN9kd+ysCAcGBtshPGRccR1sBvpzwLJ632g4LIQ+OwKx+CHc7Ko026RBnIJA34TxluKjUyTtI0CmR9ZaUJo78w3Pid+47ngx2fCuQwXwhgKW3NwY+C98q6LEiAmXFYzVSacL2FDoHEjIWVGhoDzmQE+Q5KGllfbtgvSkIsMNY8YgwcQDVmgeC3FR+abDBt+ef5Z9y4qAEVh1Gm30ubShRo2lhUuhcknBCFpQmDTUlSZVsgLPG/6vgwX/qEUpX8WvFfedcECJBNTGp8kpCYqgn1fbLG1UZ6hSUPx1YIhMCMa3YqMKpRmCZBE2gXSPS3sMmzYRZ5/2g/A1uiPwuYjL/512y3zANdKYQWMuy9c2CDjlSbveYpg+cE9fc/LcGPKVp0CFLwO6PLly9ZNHizzTVyM+INmrSM5fPiwdbluAmtnMBqP2aspU6bYRV2J8pvjx49bf6Vx3r175/aM2bFjx6BZkp8/f7o9Yw4dOjTI/+3bt9ZNCo53huXKlSvWhd2tWrXK7sdQp91iPRdtLhEUu3hP8vr1a+v6wp0wYYLbqw7EJxFcu497pp9XfrVw/vz5bq+5BAsQVzTmLaa6efOmdZctW2bdMkA8YCxJa8WsXbvWHS0Gr//jExIAX/Dr6OiwYSA8HMdHkpIayhw4cMD6lQHToYloN7w1Ml3eaty/f9+6yDPfat0i/zt37lg36YpYNw0XsuXZHUXMR512++jRowGbw+r0NHnh/vjxw+1VB+JDuIhR8vjxY+tC7KtYBlIFwQLEZfqzZ8+2bhq0NKi+CxYssG4ZoNrfvn0zT548GVSj5PHmzRvrInFZ0BEORAPig3BjwlPCYCHLal2E+i9cuNC6EtgUwQfSsqCIgbS412m3tDngq1R4b1+4XE8Ge60Kij3C9MWnr6/PurErsuskSICkIWQhl4s3o4bncncsqFPKw/eWQkCTn4Us6/2xPH/YFVsQ8+bNs65Edt+mT5/u9gZDEUu3opppt/Le06ZNc3v9IN1u3Lhh930tP3l+XusuDdMhS2D4OkXsu35sOc2ZM8e6VVLJu2B4MEYS3R6lvRg1apTbi0M2+dOFDOQVQiBf0vS1Tj9//uz2spFd7zVr1lg3lCrtNv2vEHnPdvbsWbdnzObNm93eX3A+uqzg06dP1i1CVgYzZsywrgTjXEynmLEuhMvrxo8fb91Y8oQrSIDyDBQPhv4mBuGATGwsJx+qv3LhACZqFiSaD7y6gDihe1YGDGajr9/oxkHPVkGOB8SMTcjxHd+YgmxN+fzZasU/bxDkD9Mnr9VDjh49al0U9HQ3r2677e7udnt/Wwnk+fPn1pXPBnBfvj7T29vrHXgHfBa2aoqQlYFvgPnhw4du729ZgQAXfb9Zhrt8+XK3V4y08dGjR7s9D0lhDCIxMjullvQvB6ZLMc2H45gqxHoG+CeGYP0wzQg/nls3croW9+aUKFz4Id7w801NhtJq0/BYy8Ews6aoQ2H6xEy1Iq/zrmF6FfnDdpBPtBmZd7Q7X77J6fOs9Tu8vi675fW4hvEGvK+MN+LI47hPHrFr1qQt+D4CJpdssExgv8huEE+cx/QJJXQpQbAAyQeQGxOYxsANCR27qKtRaNC+DfFptODjeRBGo5s01FhgjAgjnR8wEOQF/MogC1IovDfi4qPIP51fPpthQYEfCwvSj88PYcmzs7rtFnFh2iEuiCPyiOHRZliQEX7oGhxWCiHnS7H3CVD6ObExDfJAfEPPlch0zxPQYAECUFlGCA8qjR0ZIRMhJhOrgobJjMOGgoljjRT6ViGrMPm2WCGCgXZ0dNhrQ2pchJ93L+Q//bNqWZzDvMqzGYTPQs4N5yPOIfk6FHbLOErb44Z7x8SXUDQQZhG8F2zEh3xOhFfU8gEUf5wfW36kKOcRJUDK8AWiQwGKre2Uf2FrB4WwUdjNzRKWuoDgULRDxCoNr4X451HJLJjS/mBgMjF2u8/1Iko5OHCct3YplDNnzthBfgxchywrqIpNmzbZ2a9ETKNXoGMAmjNn+OvmXJwQKcpAkxu1V2yTW+kH6YY0xObrmpYB3ULkCbZW/1sewAFxdL+a8q8YSnsim93aDSsHuisUoCpBF1mOVVUlbgTho5tHocP4UxlibUi7YMoAWAuze/duu+97l0gphq9nJCJh3apAFxmvFSXCY8aMGWOOHTvmfKrh169f5vTp0zb/379/X/pfOLDIEt2vpPWT+frNPzghUpQBmjXwORxgK6Vo8HU4glYUWz+hA9eVf5ReaX8wiIgBVNRkSTM6rCZTRjR4+wCr/PE6SCK+9qsTIagAKV5UhJRQpPhg1gxfnwhFx4AUL3h3C5+5wNQ8vq8EAUq/cKkoeL+SH/tLuuxR4gNUgJRMIEL4LhNaQEn//p+vHyoKwAffUDnBPnbu3OmOhqNdMEVRmoa2gBRFaRoqQIqiNA0VIEVRmoQx/wOLsGS4jMpV2gAAAABJRU5ErkJggg==;" vertex="1" parent="WIyWlLk6GJQsqaUBKTNV-1">
          <mxGeometry x="356.8" y="295.02" width="130.91" height="20" as="geometry" />
        </mxCell>
        <mxCell id="Um86P_UFlqREeCSDN8Ke-30" style="edgeStyle=orthogonalEdgeStyle;rounded=0;orthogonalLoop=1;jettySize=auto;html=1;entryX=0.25;entryY=0;entryDx=0;entryDy=0;" edge="1" parent="WIyWlLk6GJQsqaUBKTNV-1" target="Um86P_UFlqREeCSDN8Ke-10">
          <mxGeometry relative="1" as="geometry">
            <mxPoint x="290" y="110" as="sourcePoint" />
            <Array as="points">
              <mxPoint x="290" y="130" />
              <mxPoint x="328" y="130" />
            </Array>
          </mxGeometry>
        </mxCell>
        <mxCell id="Um86P_UFlqREeCSDN8Ke-28" value="" style="shape=image;verticalLabelPosition=bottom;labelBackgroundColor=default;verticalAlign=top;aspect=fixed;imageAspect=0;image=data:image/png,iVBORw0KGgoAAAANSUhEUgAAAEUAAAAvCAYAAAC14gcVAAAAAXNSR0IArs4c6QAAAARnQU1BAACxjwv8YQUAAAAJcEhZcwAADsMAAA7DAcdvqGQAAANOSURBVGhD7Zq/SitREMZP7guI+gZqF9KIpkpj4Z830FeIWAlpFPtY2MfOzoC2BkyRIkIgkMJAIFV8gSi+gbn7zT0TN3tnd89uduXCnR8sM5xjdma/PWfOJFiYeRhlgV/WKj5UFAEVRUBFEVBRBFQUARVFQEURUFEEVBQBFUVARRFQUQRUFAEnUT4+Pszp6akpFApma2vLDIdDO/M9t7a2RvMnJyc09hMgzu3trdnd3aXYnB/yabVa5ujoiPJJDH5PieL9/X22s7OD31zm1/HxMc29vr7OVldXF+ZwHR4e0nyeIDbndX19PZtMJjT+8vIy817QPBfMJSVSFBYEIsC/uLiYPzSSgCAIirmgeEg6Lzg24tzf39vRby4vL+d5QKSkRIqC4BAADwwgAAJBJAgQTOjp6WmejJRsViAnxKhWq3ZkEc4TF+eehNjt44dXCt4S/CB4K5xMmmXrAsTmGLxlgnh1hObx4tKQ6PRpt9tkUVTPz8/JD2NlZcV62XJ3d0fWW61mY2OD/CCDwYDswcEB2aQ4i4JKz8FqtZpZX18nP4xisWi97EAOz8/P5O/t7ZEN8vb2ZrwVRH6pVCKbFGdR+v2+9YzZ39+33iK9Xs96xlQqFetlx3g8tl646I+PjygJ5JfLZbJJcRZlNBqR3dzcDF22Dw8PZLG088AvugRWUr1eJz8qzzicRel0OmS94kU2CJYtb6+zszOyP83V1ZX5/PwkPyxPF5xF4b28vb1NNsjNzQ1Z77jMZeuAqOLdbDbpxWCFgLCa48SfQyga/1ErHcU4Jr0Wm47qsL7A3zuEHaVxoCHke3BDiQv3Rmz//DLNo5Mo/gdCcO4SOSGMoyeISsR/jzRdJsONm/9iQfzN4zI4fZoTgUUXiSQ4OMRoNBr2L8PJShS8CKwS3Ad5IB9enfAxjjyXwUkUFmGZ1p1Fwb3ywqsnFMM7gexIOmJFyWqfcsJ5fSdCneI8u92uHU1HrCjYGhwsLXwPqUhnhf870XQ6taPpiH1S3r/L7FN8Nq8VwnA9QY37+vqyo+mIFYXrCYL9y/D2hM1VFP8+5YDL1JW8kPLE8ZwW/fcuAec2/39CRRFQUQRUFAEVRUBFEVBRBFQUARVFQEURUFH+wpjfY27KNmKdWI8AAAAASUVORK5CYII=;" vertex="1" parent="WIyWlLk6GJQsqaUBKTNV-1">
          <mxGeometry x="273.12" y="83.5" width="33.77" height="23" as="geometry" />
        </mxCell>
        <mxCell id="Um86P_UFlqREeCSDN8Ke-31" value="" style="shape=parallelogram;perimeter=parallelogramPerimeter;whiteSpace=wrap;html=1;fixedSize=1;" vertex="1" parent="WIyWlLk6GJQsqaUBKTNV-1">
          <mxGeometry x="244.99" y="370" width="100" height="30" as="geometry" />
        </mxCell>
        <mxCell id="Um86P_UFlqREeCSDN8Ke-32" value="" style="shape=image;verticalLabelPosition=bottom;labelBackgroundColor=default;verticalAlign=top;aspect=fixed;imageAspect=0;image=data:image/png,iVBORw0KGgoAAAANSUhEUgAAAG0AAAArCAYAAABy+QYnAAAAAXNSR0IArs4c6QAAAARnQU1BAACxjwv8YQUAAAAJcEhZcwAADsMAAA7DAcdvqGQAAARGSURBVHhe7ZvNLixBFMfP3AcQxguIj4REYuFzIRIW2Iuwt2JnY0E8AEsbPAFhTcKCxFcQER6AJ/AVD2Bu/Y86o7QemZrumjvVt35Jp46qvlNnzv90VfWZ3FxBQQGv+KPbgEcE0TwkiOYhQTQPCaJ5SBDNQ4JoHhJE85DMira6ukq5XO7blRUyK9rCwgLd3d3pv4jGxsa05T+ZXh67urq0RTQyMqIt//lv9rTOzk5t+U+mRTs7O9MWUX9/v7b8J9OiXVxccNvT00ONjY1sZ4FMi3Z7e8ttb28vt1khkWjPz8+0ublJ4+PjxWN1Pp+n6elpenx81He5BfMsLS1Ra2tr0QeIhL7Dw0O+Z2hoiFtXbG9vF+fHvCb7+/vsD8ZwD+5NDH4ErYTT09NCQ0NDoaWlpbC1tcV9T09PBbUU4UfVgjpic59L9vb22Adc8AHzg42NDfZBroeHB+53AeY158KlXjV4bHZ29seYOV4pFYkmjkIgCZSwsrJSdM4lEExlLwsWFwRJHoy7AnHA58MXxEG+NxJ6cXGRExo2QCLBX4zDToJ1ZBEgOIrJ44IFZzEGh12BAIkP8pRHwZOO8ampKd2TPviu5vyYDxcSN5rQEE9Eg8hJsBZN7V88MR79KKagpYKZBrLs/JYY4kfSrC4XLMGYT/yKJrQpWlyy22AlGiaTiWWfQB8yRwKJYLkUzHzK1tfXde93zACenJzoXrcgBjInnrQoiIks50mxOj3u7OxAZLZVNvGJaGJigtbW1kg5Q8pxenl54dOjK66uruj19ZXtgYEBbqNcX19ri2hwcFBbbpF3QsRhZmaGbROVPBy7VGLD0pWJ7BNxS2O1MA86Hx8fuvc74ifaUvekjTrW/xobLJkYT2MVsnrSDg4OuG1qauL2X3B0dKSteFC6Ej9RJMZq4Bq8r97c3LAd9054f39Paslmu6+vj9skZKoiguDNz8/zEgWqVSTGki10dHRo64vLy0tusaU0NzeznQQr0TAp2N3d5TYKgoY1O5W3/hLU19dr6yfLy8s0OTlZ3PPq6uq4RaajauOK8/Nz3q+QLObPQcLx8TG3qIgIc3NzXC2pBCvRRkdHucVSgPKVgFISfilua2vj0lFctgEpd5nO2zI8PKytz1+nAeaX0pnax7gPvL+/s2D4N93d3br3izT8AVIuK7X0vb29cYukBhAMid3e3s5/W/O5tZUHjtv5fL54EIheeKH8rWQkBwRclWIe+c3LfJmNjpc6HKThD5DPiDvqA7zgyz244F+SdzVrbyEKgmAGBl++nFNRWkHCFzbLVAiWWX2AL+iXsVKk4Q9emuUzpGQVBf7K6RFzJhEMJIueJRIkl6UlG2rNn3KpmmhSpUi6NKRFrfljQ9VEQzYjQC5LXDbUmj82VEU0ZDX2oFrJ6Frzx5bwP0E9JFMVkf+FIJqHBNE8JIjmIUE0DwmieUgQzUOCaN5B9BduzCsL/VyqxAAAAABJRU5ErkJggg==;" vertex="1" parent="WIyWlLk6GJQsqaUBKTNV-1">
          <mxGeometry x="267.11" y="374" width="55.77" height="22" as="geometry" />
        </mxCell>
        <mxCell id="Um86P_UFlqREeCSDN8Ke-39" value="" style="shape=image;verticalLabelPosition=bottom;labelBackgroundColor=default;verticalAlign=top;aspect=fixed;imageAspect=0;image=data:image/png,iVBORw0KGgoAAAANSUhEUgAAAdwAAAA7CAYAAADRlTt7AAAAAXNSR0IArs4c6QAAAARnQU1BAACxjwv8YQUAAAAJcEhZcwAADsMAAA7DAcdvqGQAABKgSURBVHhe7Z3ZrybDG8f7/O4Fw5UgYkgIQjCILSFhLDcSJkPiQiLBzIVE7DNcWYe4wwwhcWUJiUjsEpKxxO4IYhJLxHbjIPwB5tef0l/zTE8v1evb7znPJ6l0n+5+u6qeeup5nqqu7rOwMyVxHMdxHGdQ/pdtHcdxHMcZEHe4juM4jjMC7nAdx3EcZwTc4TqO4zjOCLjDdRzHcZwRcIfrOI7jOCPgDtdxHMdxRsAdruM4juOMwCQc7tNPP52sWbMmefnll7MjjuOsZNwmzB7kv3HjxuT777/PjjjQRS4zdbiff/55KPxll12WrF69OjniiCOyM47jrETcJkyHdevWhcCHdrjvvvuyo04nufBpx1mwuLi4c9999+Wzkjufeuqp7KjjOCsVtwnTY2lpaeeJJ54Y2mTDhg3ZUaetXGbicL1jOY5jcZswXaxz2bRpU3bUaSOXmThcFXLLli3ZEcfpzttvv71z/fr1IfUFjmD16tVBV+lgzjC4TRhGf6EPHf7uu+/+C4heeuml7KjTVC6jO1wancKhAI7TBxiRtWvXBr1i26dBoEOhs3Qqko+++mel24Qh9Rf60mG33cU0kcuoDhfFUjTghsvpA01FDu0MrVH0Z1n9sdJtwlj6C1112O13MU3kMqrDpTAUisJRyDagoCgNyZl/ukwl2ukc9GIMmO4jvz6fZcnocl+biiJmrl21atUe18YYUPqfDK4S8ue3yLIJ1N/epy6VtU8fNmGWUGbVkSnhJsxCf6GLDqvdl9sol3akH1C3NsTKZVSHu2bNmlCottGVBEJyh7s8UHs2NVYgZ71t27bsyPCgh3Qq8u1z6s/el1TVR/LX1tUfY67r6Tc4OeSdd8BNDTD5Liws7NEXubfuSb6Utwy1YRubMAVsXZsiezim/kIXHUaXVN8xg4Qh0XS76tWGWLmM5nCJ5uicFIiO3oS8QEjucOcfa6yqjHIRGhlhOMZmqLz1LIhUF4BYR1l1LZ1ffadsFsEGsk2cLvnSp/O/se1a1U+xCbquqU2YCmozAocmUF9kNwv9hS46LH1qGqBNDYINBR42tSVGLqN9+OKNN97I9pLkpJNOyvaq4eXiww47LHn00UeTe+65J0kFlJ2ZDvoiznLknXfeSS699NKwHYL33nsvbFNjley3335hP5bbbrstbO+8886wHRNkknbUJHUYof1nzemnn57t7cnFF1+c/Pnnn0nq+JKbbropO7o7Dz/8cDgPd999d+P23nvvvbO9PTn77LOzvT1pYxOmxptvvhm25557btjGgv6m9ncm+gtddFh1feaZZ8J23kC/zzvvvOTyyy9P1q9fn6QBYpBFV2LkMprDfeutt4KCpVFAcuihh2ZHq/nxxx+Tq666Kvnggw+Sq6++OrnggguyM7OFT3pt3rw5WbVqVfgizscff5ydmX9+//335JFHHgmBzhlnnDFop2prrPjcH4YCzjnnnLAdGzoqPPDAA2E7RTCkktO1114btmXY802dwMEHH5ztNQObAE1swtR47bXXwva0004L2ximoL9gdRjbHMvxxx8fttRhXj/7uM8++yQfffRRctddd4WAFXvXlRi5jOZw5ZSaRLJE5KSmo5+hoKMoMmQkwMhhw4YNyeLiYnbF/MIn9fg+6OGHH55cc801QWkY9TCrUDWC6sKHH34Ytsccc0zYxvLiiy+GLeWblW6cf/75YYteT9XoKBjAodUFq5znOsCJEHjV8fPPP4ftgQceGLZNaWMTpgR9RjT5BOUU9Bfa6vCpp56a7SXJr7/+mu3ND9gzgtE+RrWWGLm0crga4TGVurCwEBIRAsfKOqoiuhNOOCFs5wXqw/cyqd+FF14YRnw01LZt25KlpaUwHXfsscdmV3eDqQ6cHnlJrsiYEedQaEr8uOOOS7Zu3RqObdq0KbTXq6++2tusgkbOTOUwM0DdCFiAWQLKEPtB8Ndffz1sY3SJfAmSpKPWSHKOPFUerivT3zxHHnlktrcrcJgSyLGpQ7PXMatUBzNQjIysLJrQh00Ys8/I7qHD5EOfEdgEjmMr6nSoif6Cvi9NnuRh78856Td6TPliaavDe+21V7a367GQEymXtMM0ghV1/CyNzv5brMHCDL2qULQww67gKlu4EYvuQ/5DQt3sYhISf6vOfcKCIeXFNjVE4bgWNpD6zJf782BfD/lJyHOohSvoDHmRaH/0QXqUGqpQf13DsapFB1yrMvObKrhWq2CVeCUC7GKiovMxxJS3CVqAQ6prb9pL1xbB73UenYrB5h/TTykDMshj8y67T1ebMGafIS/amHuir08++WTID12x+esaZMI1RVj9TQPc7Gg5RXoqvdfCK3vOno+hrQ4rrza6b/WjS+rTB9T1p1h0jzK5NLq7VfA8aeQVzhUJIaYDxqL79ClsQWdAielUyod9yqwO3TfkmUavIa8ih6dydJUbsCrPKhadjbakUw+FdAbHZ2WYRuXhuNUlqydlRsNeU2VQkSt5YhStwaT+lIO6c4xzJLU5x2ORLPvSRdo4pm5g27EIe69Y3Wn6G2RVVPeY/h5zTRlqW347dJ+xeaGr/C3krGwZrAyL+pWt9/bt27OjxcjZqh4qB3/Tlzknp20DmCZBY1sdVl5tdN/KoEtqk3cZkgOpC3Vli55SZuqRKcfUMCV33HFHdnQXmuaoW/xg57mnAlNFen7J9GZqkMOCAp5ffvvtt+E58lCLOm6//fbw8J78mBqy2KmjtgtTuIedEuf5XNpxk9RIJN98802vU+J5kKl0hulpK0NNd9q8ebaCHODWW29F88N+G/7666/wfOyhhx4KW62kZbEEeVBvFkxwjoR8gLJOARasMU1YlrRYZ1YwlckjgbPOOis70p6mNoE+g/4M1WcE92IKV3mhM3rmis3QIxE7NYutSB1h2OfNii788ssvoX5aXa680W0WubHojPUWYPvRVHS4DPo5fbtrwqbMG1EOF8XDeAIrGNXwAmeMUqJorCaeJ+hQKGj++SV1GnpVNM+flC+LsPJgWAAH2WY1I452//33T26++eZQpzRCD0vgcfB05Hw79omt2xNPPLFbXhgrygOnnHJK2IqLLroobDFm3KMtOHc6pPL94YcfwpbnZzwPyxtqMRVjlY7wQ1uVJXRilrz//vthO3YAPXSfsTz++OP/2TUCN4ueeXIuH7BKt7qu8Mf+4OQFwT9Qf+xwWaDcNdBwhiPK4T733HPBAGKMpEwoPk4Jh8WoEANHxDXUaGkoNFJYu3Zt8scff4RRz1Cj2TwPPvhg2OIIyZPABrnqtRw6FuWyjqMJeu2GdsPB0XmHWnGcR6+WYPjyee7YsSPb2z0yh7YrXusgyBBFMzQyZn2M2PrgqKOOCnIrS0MGSzE8//zzwdlQljEZus8I7nvvvfeGffLK3+uLL74I26IFaYcccki21x+UR0EqeeYDRoJYkQ9inekQ5XAfe+yxsKXBNaV13XXXhZELL7YvLi4GgzVvzhbonIDj1So/q7xDQQdSBIyRQKaMRnFUBC433nhjkHcXw6GPDnAfnC6zFF1GjbFQNwUy69atC1vLu+++G6aEJHvL33//ne31B+XRFPYtt9yyhzztiHuW70X2iR3lfPrpp9lePFUfs1D7Nn1/uitj9BnBKm1NGev1GYtWGhd92IMp376xq8b10ReLRtz083m0wyuFKIcrY8VzP82fM2JAsXm+MM8NTB3opESxwDSVRvK8dzsUX3/9dbb37+jKPpdg5oCp+a4jbdpmaWkp2bJlS6gTRopng0ypkgcGbAhs3YqmHD/55JOwLTJWX375ZbaXJAcccEC21w1rrC655JJsbxfWWI01uzE0dqZAwUQd1jFXjZKY8QKm/3F6Y2H1ijoN0WeE1cOiUbxsYpV+o099QZAK3LOoPNu3bw/bsYOgNhD0a+DWJTG7Om/UOlw7Iupjum+K723RSZluZRERQQXToETSLDJimopnoX2Peq0chjTyRPo4Xpw6i8BY/IGx4DEAi8QY9dp3U8dAo9+jjz46bC3PPvts2NIGRXKxC1S++uqrbK8aa6yK7vnCCy+EbVNjJUc9xXfLMcpavEN7xwRXciJFzyUt999/f7im7Dl4U2Jtwlh9pg5rE/PvIGv0D1oAaGmjv6ARdZmOEnDAmWeeGbaxTFmHlyNRI9yu2BeCpwzOCSPC6J2FKYx6iaRZdISxHmtKdihYhEHHpE4sDgNGvbzAT7SoTtsn+hqRsPI7+eSTs71/4ZyM/vXXXx+i2Dy0kRwJH16IQcaqbKGRzjcxVhhWTTlOdZGKdYj2u8VFEHRpJMy0exnSH80ItWVebALkg205fvQpP3XNQitx5ZVXZnu7sPr7008/hW0d6Jr6RVEgpBXj0OSrXVaHDzrooLBtShtHTTCo2YkuiZmNqVIml1qHa6f1XnnllWxvd2hwnnOUjZSskgzxfGMIUApGvUVTsox6WaQRM2oowxrpsqlrjuMIu+RTBKMDFoexSEwjeqJyRr19PMe2oytNdQlF9cjTGivqeMUVV4R9nu1WjZ50To6yCmusihZEWWOlGRyO1U1X2WnqqT73veGGG7K94ud+Fr3CQrsVOQqh+1RdE0MbmzBmn7HrCzQKFJ999lnY8mjGgt4QnAMLrspG4U30F6yuFU31a8U4KE8Co7qvTrXVYWvnq571rzSi5JJGCrWkxjG8zJt2xt1eyOdl6zTSDedSo73bS+F5dI9UkbMjzeH+3EP5jQ0vm6/Pvi6jRP2LXnCvIx0l7FYX/hb2AxXcfwzUlrSxykUZKEsb+HCF7mN1RvKz9aJdkQHH6/QIKJPubeVWhL3WlkNwLB1Jh/NcixyQQdmXYoTV+yK4r/K1H0aown40oaisFukHqUr/7D3LdIny6Zqq9lab1snG1p38y2hqE7r2GdvWMW0iXUUfrE7qq3r2HtIb5f/PP/9kZ/akif4C8tb1Rdg2ppxqz6q2BKvDVeXNY9u3Tk/nBdkfUp39KSNGLlEO196oKNFwv/32W3Z1MVZ5m0L+KI8VCglF5FyM0vYJ+ZG3dU5tsB2lKDX5RFtfoGzkK2NIKlOeOlQ/5MQ9ubfuu3Xr1mCkuEZyRKaxyq771MnIyrgIyiAjrFRmsC0qc5nhtn2GMtRhZUOqcmr5a5vIAKdEmdWnbL+samc5FFJdG8XWvY1NsHUpSlWyoFxq69g2URmRN/Ki7+seyIR7ynFRj7q2ELH6CwokygIT7sF5m2ICCsobe63FtsHYtrdP1H5qYyX+pq0534QYuUR7inzBaCz+5ngMKIUUtUkjKb+6FBsl9w3KWjbKiUG/Vz3oiHTgKSiy2jy2jYugHtQnHywp0W44l6b1lZFBXlXUGSvYvHlzuAadjjHEtJnyLnM+yIxrSHX3lDPT9UpFdeNajbBsqgsSkC9yzrcDckGWVU7UXt8l5bGOokn7t+0ztEkThyvUD8hHeSrRbjEyzCN7WKe/oLzKyky+0nPuVzeyhRgdLkN+IKbsU0XyikmxxMil3dCsBXQGKTuN7aw81MkxUk2msMqQ0W1iPLuCcZJzrDJs1uE2jZSnhuqBIWkSfHGtDSTyYBN0bgybYB1u2zbRaBbj2hV9Q31M/YVYHS5Dv62ahVmJxMhlNIcLUrC6aNxZnlhj1YfDtaO9Jo6gC4qM63RYdV0Ouk492soYRyonV4SCpjHk1EebEHRwD0aoXbEzG2PpL8TqcBGUmd+S5j2Q7JNYuYzqcO0Ip+k0hjP/DDEildEiDTlKstN2dYZKnY/rl4OeU5e204fUv8rhjmUT+mgTfsc9SH05yLH0Fyh/F2cLjN74/TxPJw9BrFxGdbg0OIpFwYZWLmdaDGGsBFOTMiRs+7w/9yZAkFGMGdnQ+ZbTdJvk2pbzsn/dWcRYNkFt0mVmhelXyllWl7YMqb/QRoeLcPtdTBO5jOpwgYanYB4hrSwwIrQ7aSjIg+nqPp6vCUYg6Cp6S8daidBmXWYlNm7cWNnu82ITVM4uwUcVQ+gv9KXD89JOY9NELqM7XJjFYhdntkgpaXvHyTMPNkGj0OU0exELo2SN4tostFquNJXLTByunltQSJ+acBzHbcJ0YVSsgGglBhtltJHLTBwueAdzHMfiNmF6WKfSZXX3cqOtXGbmcIEOpkLz3ILhueM4Kxe3CdOB6X0FQP74bxdd5DLKfwsqgw+Y85950mg2/AeSHTt2ZGccx1mJuE2YDvyrTP7RAu3Av/h0/qWLXBbwutm+4ziO4zgDMdMRruM4juOsFNzhOo7jOM4IuMN1HMdxnBFwh+s4juM4I+AO13Ecx3FGwB2u4ziO44yAO1zHcRzHGQF3uI7jOI4zAu5wHcdxHGcE3OE6juM4zgi4w3Ucx3GcEXCH6ziO4ziDkyT/BzpSHWqfwH9IAAAAAElFTkSuQmCC;" vertex="1" parent="WIyWlLk6GJQsqaUBKTNV-1">
          <mxGeometry x="298.25" y="225.25" width="238" height="29.5" as="geometry" />
        </mxCell>
      </root>
    </mxGraphModel>
  </diagram>
</mxfile>
